<svg id="visual" viewBox="0 0 900 600" width="900" height="600" xmlns="http://www.w3.org/2000/svg" xmlns:xlink="http://www.w3.org/1999/xlink" version="1.1"><rect x="0" y="0" width="900" height="600" fill="#000"></rect><path d="M0 452L8.8 444.5C17.7 437 35.3 422 53 414.3C70.7 406.7 88.3 406.3 106 400C123.7 393.7 141.3 381.3 159 388C176.7 394.7 194.3 420.3 212 430.7C229.7 441 247.3 436 265 429.7C282.7 423.3 300.3 415.7 318 407.8C335.7 400 353.3 392 371 395C388.7 398 406.3 412 423.8 425C441.3 438 458.7 450 476.2 454C493.7 458 511.3 454 529 439.2C546.7 424.3 564.3 398.7 582 397.3C599.7 396 617.3 419 635 430.5C652.7 442 670.3 442 688 439.5C705.7 437 723.3 432 741 436.2C758.7 440.3 776.3 453.7 794 446.2C811.7 438.7 829.3 410.3 847 402.3C864.7 394.3 882.3 406.7 891.2 412.8L900 419L900 601L891.2 601C882.3 601 864.7 601 847 601C829.3 601 811.7 601 794 601C776.3 601 758.7 601 741 601C723.3 601 705.7 601 688 601C670.3 601 652.7 601 635 601C617.3 601 599.7 601 582 601C564.3 601 546.7 601 529 601C511.3 601 493.7 601 476.2 601C458.7 601 441.3 601 423.8 601C406.3 601 388.7 601 371 601C353.3 601 335.7 601 318 601C300.3 601 282.7 601 265 601C247.3 601 229.7 601 212 601C194.3 601 176.7 601 159 601C141.3 601 123.7 601 106 601C88.3 601 70.7 601 53 601C35.3 601 17.7 601 8.8 601L0 601Z" fill="#ffcc80"></path><path d="M0 472L8.8 473.8C17.7 475.7 35.3 479.3 53 480.7C70.7 482 88.3 481 106 479.8C123.7 478.7 141.3 477.3 159 466.7C176.7 456 194.3 436 212 426.5C229.7 417 247.3 418 265 421.5C282.7 425 300.3 431 318 439.7C335.7 448.3 353.3 459.7 371 462.3C388.7 465 406.3 459 423.8 460.2C441.3 461.3 458.7 469.7 476.2 468C493.7 466.3 511.3 454.7 529 451.5C546.7 448.3 564.3 453.7 582 460.8C599.7 468 617.3 477 635 472.5C652.7 468 670.3 450 688 445.2C705.7 440.3 723.3 448.7 741 454.3C758.7 460 776.3 463 794 456.5C811.7 450 829.3 434 847 436.8C864.7 439.7 882.3 461.3 891.2 472.2L900 483L900 601L891.2 601C882.3 601 864.7 601 847 601C829.3 601 811.7 601 794 601C776.3 601 758.7 601 741 601C723.3 601 705.7 601 688 601C670.3 601 652.7 601 635 601C617.3 601 599.7 601 582 601C564.3 601 546.7 601 529 601C511.3 601 493.7 601 476.2 601C458.7 601 441.3 601 423.8 601C406.3 601 388.7 601 371 601C353.3 601 335.7 601 318 601C300.3 601 282.7 601 265 601C247.3 601 229.7 601 212 601C194.3 601 176.7 601 159 601C141.3 601 123.7 601 106 601C88.3 601 70.7 601 53 601C35.3 601 17.7 601 8.8 601L0 601Z" fill="#ff857e"></path><path d="M0 527L8.8 520C17.7 513 35.3 499 53 491.3C70.7 483.7 88.3 482.3 106 482.8C123.7 483.3 141.3 485.7 159 489.2C176.7 492.7 194.3 497.3 212 493.5C229.7 489.7 247.3 477.3 265 478.2C282.7 479 300.3 493 318 502.5C335.7 512 353.3 517 371 516C388.7 515 406.3 508 423.8 504.3C441.3 500.7 458.7 500.3 476.2 495C493.7 489.7 511.3 479.3 529 475.8C546.7 472.3 564.3 475.7 582 474.7C599.7 473.7 617.3 468.3 635 476C652.7 483.7 670.3 504.3 688 508.3C705.7 512.3 723.3 499.7 741 497.5C758.7 495.3 776.3 503.7 794 504C811.7 504.3 829.3 496.7 847 498C864.7 499.3 882.3 509.7 891.2 514.8L900 520L900 601L891.2 601C882.3 601 864.7 601 847 601C829.3 601 811.7 601 794 601C776.3 601 758.7 601 741 601C723.3 601 705.7 601 688 601C670.3 601 652.7 601 635 601C617.3 601 599.7 601 582 601C564.3 601 546.7 601 529 601C511.3 601 493.7 601 476.2 601C458.7 601 441.3 601 423.8 601C406.3 601 388.7 601 371 601C353.3 601 335.7 601 318 601C300.3 601 282.7 601 265 601C247.3 601 229.7 601 212 601C194.3 601 176.7 601 159 601C141.3 601 123.7 601 106 601C88.3 601 70.7 601 53 601C35.3 601 17.7 601 8.8 601L0 601Z" fill="#e950b7"></path><path d="M0 511L8.8 517.3C17.7 523.7 35.3 536.3 53 542.5C70.7 548.7 88.3 548.3 106 544.2C123.7 540 141.3 532 159 526.5C176.7 521 194.3 518 212 524.3C229.7 530.7 247.3 546.3 265 553.3C282.7 560.3 300.3 558.7 318 555.5C335.7 552.3 353.3 547.7 371 545.8C388.7 544 406.3 545 423.8 544.5C441.3 544 458.7 542 476.2 539.2C493.7 536.3 511.3 532.7 529 530.5C546.7 528.3 564.3 527.7 582 526.5C599.7 525.3 617.3 523.7 635 529.5C652.7 535.3 670.3 548.7 688 552.8C705.7 557 723.3 552 741 543.8C758.7 535.7 776.3 524.3 794 527.8C811.7 531.3 829.3 549.7 847 553.5C864.7 557.3 882.3 546.7 891.2 541.3L900 536L900 601L891.2 601C882.3 601 864.7 601 847 601C829.3 601 811.7 601 794 601C776.3 601 758.7 601 741 601C723.3 601 705.7 601 688 601C670.3 601 652.7 601 635 601C617.3 601 599.7 601 582 601C564.3 601 546.7 601 529 601C511.3 601 493.7 601 476.2 601C458.7 601 441.3 601 423.8 601C406.3 601 388.7 601 371 601C353.3 601 335.7 601 318 601C300.3 601 282.7 601 265 601C247.3 601 229.7 601 212 601C194.3 601 176.7 601 159 601C141.3 601 123.7 601 106 601C88.3 601 70.7 601 53 601C35.3 601 17.7 601 8.8 601L0 601Z" fill="#2962ff"></path></svg>