<svg id="visual" viewBox="0 0 900 300" width="900" height="300" xmlns="http://www.w3.org/2000/svg" xmlns:xlink="http://www.w3.org/1999/xlink" version="1.1"><rect x="0" y="0" width="900" height="300" fill="#000000"></rect><path d="M0 172L21.5 182.2C43 192.3 86 212.7 128.8 213.5C171.7 214.3 214.3 195.7 257.2 194.3C300 193 343 209 385.8 207C428.7 205 471.3 185 514.2 179.3C557 173.7 600 182.3 642.8 177.7C685.7 173 728.3 155 771.2 156.3C814 157.7 857 178.3 878.5 188.7L900 199L900 301L878.5 301C857 301 814 301 771.2 301C728.3 301 685.7 301 642.8 301C600 301 557 301 514.2 301C471.3 301 428.7 301 385.8 301C343 301 300 301 257.2 301C214.3 301 171.7 301 128.8 301C86 301 43 301 21.5 301L0 301Z" fill="#ffcc80"></path><path d="M0 246L21.5 241.2C43 236.3 86 226.7 128.8 214.8C171.7 203 214.3 189 257.2 189.7C300 190.3 343 205.7 385.8 210.3C428.7 215 471.3 209 514.2 215.2C557 221.3 600 239.7 642.8 237.7C685.7 235.7 728.3 213.3 771.2 202.3C814 191.3 857 191.7 878.5 191.8L900 192L900 301L878.5 301C857 301 814 301 771.2 301C728.3 301 685.7 301 642.8 301C600 301 557 301 514.2 301C471.3 301 428.7 301 385.8 301C343 301 300 301 257.2 301C214.3 301 171.7 301 128.8 301C86 301 43 301 21.5 301L0 301Z" fill="#ff857e"></path><path d="M0 225L21.5 232.5C43 240 86 255 128.8 261.5C171.7 268 214.3 266 257.2 258.8C300 251.7 343 239.3 385.8 229C428.7 218.7 471.3 210.3 514.2 218.3C557 226.3 600 250.7 642.8 252.5C685.7 254.3 728.3 233.7 771.2 223.7C814 213.7 857 214.3 878.5 214.7L900 215L900 301L878.5 301C857 301 814 301 771.2 301C728.3 301 685.7 301 642.8 301C600 301 557 301 514.2 301C471.3 301 428.7 301 385.8 301C343 301 300 301 257.2 301C214.3 301 171.7 301 128.8 301C86 301 43 301 21.5 301L0 301Z" fill="#e950b7"></path><path d="M0 267L21.5 270.8C43 274.7 86 282.3 128.8 278C171.7 273.7 214.3 257.3 257.2 248.5C300 239.7 343 238.3 385.8 242.7C428.7 247 471.3 257 514.2 259.7C557 262.3 600 257.7 642.8 254.7C685.7 251.7 728.3 250.3 771.2 255.3C814 260.3 857 271.7 878.5 277.3L900 283L900 301L878.5 301C857 301 814 301 771.2 301C728.3 301 685.7 301 642.8 301C600 301 557 301 514.2 301C471.3 301 428.7 301 385.8 301C343 301 300 301 257.2 301C214.3 301 171.7 301 128.8 301C86 301 43 301 21.5 301L0 301Z" fill="#2962ff"></path></svg>