<svg id="visual" viewBox="0 0 900 300" width="900" height="300" xmlns="http://www.w3.org/2000/svg" xmlns:xlink="http://www.w3.org/1999/xlink" version="1.1"><rect x="0" y="0" width="900" height="300" fill="#000000"></rect><path d="M0 165L21.5 175C43 185 86 205 128.8 208.5C171.7 212 214.3 199 257.2 192.3C300 185.7 343 185.3 385.8 184.8C428.7 184.3 471.3 183.7 514.2 179C557 174.3 600 165.7 642.8 169.3C685.7 173 728.3 189 771.2 200.7C814 212.3 857 219.7 878.5 223.3L900 227L900 301L878.5 301C857 301 814 301 771.2 301C728.3 301 685.7 301 642.8 301C600 301 557 301 514.2 301C471.3 301 428.7 301 385.8 301C343 301 300 301 257.2 301C214.3 301 171.7 301 128.8 301C86 301 43 301 21.5 301L0 301Z" fill="#ffcc80"></path><path d="M0 204L21.5 207.2C43 210.3 86 216.7 128.8 215C171.7 213.3 214.3 203.7 257.2 200.2C300 196.7 343 199.3 385.8 205.2C428.7 211 471.3 220 514.2 220.8C557 221.7 600 214.3 642.8 210.7C685.7 207 728.3 207 771.2 206.7C814 206.3 857 205.7 878.5 205.3L900 205L900 301L878.5 301C857 301 814 301 771.2 301C728.3 301 685.7 301 642.8 301C600 301 557 301 514.2 301C471.3 301 428.7 301 385.8 301C343 301 300 301 257.2 301C214.3 301 171.7 301 128.8 301C86 301 43 301 21.5 301L0 301Z" fill="#ff857e"></path><path d="M0 232L21.5 229.2C43 226.3 86 220.7 128.8 220.8C171.7 221 214.3 227 257.2 231.7C300 236.3 343 239.7 385.8 237.8C428.7 236 471.3 229 514.2 230.2C557 231.3 600 240.7 642.8 247.7C685.7 254.7 728.3 259.3 771.2 256.7C814 254 857 244 878.5 239L900 234L900 301L878.5 301C857 301 814 301 771.2 301C728.3 301 685.7 301 642.8 301C600 301 557 301 514.2 301C471.3 301 428.7 301 385.8 301C343 301 300 301 257.2 301C214.3 301 171.7 301 128.8 301C86 301 43 301 21.5 301L0 301Z" fill="#e950b7"></path><path d="M0 280L21.5 275.3C43 270.7 86 261.3 128.8 256.8C171.7 252.3 214.3 252.7 257.2 251.7C300 250.7 343 248.3 385.8 251.7C428.7 255 471.3 264 514.2 267.8C557 271.7 600 270.3 642.8 266.8C685.7 263.3 728.3 257.7 771.2 258.5C814 259.3 857 266.7 878.5 270.3L900 274L900 301L878.5 301C857 301 814 301 771.2 301C728.3 301 685.7 301 642.8 301C600 301 557 301 514.2 301C471.3 301 428.7 301 385.8 301C343 301 300 301 257.2 301C214.3 301 171.7 301 128.8 301C86 301 43 301 21.5 301L0 301Z" fill="#2962ff"></path></svg>