<svg id="visual" viewBox="0 0 900 600" width="900" height="600" xmlns="http://www.w3.org/2000/svg" xmlns:xlink="http://www.w3.org/1999/xlink" version="1.1"><rect x="0" y="0" width="900" height="600" fill="#f5f5f5"></rect><path d="M0 420L21.5 420C43 420 86 420 128.8 411.5C171.7 403 214.3 386 257.2 382C300 378 343 387 385.8 385C428.7 383 471.3 370 514.2 371.2C557 372.3 600 387.7 642.8 397.7C685.7 407.7 728.3 412.3 771.2 418.7C814 425 857 433 878.5 437L900 441L900 601L878.5 601C857 601 814 601 771.2 601C728.3 601 685.7 601 642.8 601C600 601 557 601 514.2 601C471.3 601 428.7 601 385.8 601C343 601 300 601 257.2 601C214.3 601 171.7 601 128.8 601C86 601 43 601 21.5 601L0 601Z" fill="#f5f5f5"></path><path d="M0 396L21.5 406.5C43 417 86 438 128.8 444.3C171.7 450.7 214.3 442.3 257.2 442.8C300 443.3 343 452.7 385.8 446.8C428.7 441 471.3 420 514.2 422.2C557 424.3 600 449.7 642.8 456.2C685.7 462.7 728.3 450.3 771.2 444.5C814 438.7 857 439.3 878.5 439.7L900 440L900 601L878.5 601C857 601 814 601 771.2 601C728.3 601 685.7 601 642.8 601C600 601 557 601 514.2 601C471.3 601 428.7 601 385.8 601C343 601 300 601 257.2 601C214.3 601 171.7 601 128.8 601C86 601 43 601 21.5 601L0 601Z" fill="#f5f5f5"></path><path d="M0 494L21.5 490C43 486 86 478 128.8 471.3C171.7 464.7 214.3 459.3 257.2 459.5C300 459.7 343 465.3 385.8 465.5C428.7 465.7 471.3 460.3 514.2 465.5C557 470.7 600 486.3 642.8 487C685.7 487.7 728.3 473.3 771.2 473C814 472.7 857 486.3 878.5 493.2L900 500L900 601L878.5 601C857 601 814 601 771.2 601C728.3 601 685.7 601 642.8 601C600 601 557 601 514.2 601C471.3 601 428.7 601 385.8 601C343 601 300 601 257.2 601C214.3 601 171.7 601 128.8 601C86 601 43 601 21.5 601L0 601Z" fill="#f5f5f5"></path><path d="M0 488L21.5 487.5C43 487 86 486 128.8 490.8C171.7 495.7 214.3 506.3 257.2 514C300 521.7 343 526.3 385.8 523.3C428.7 520.3 471.3 509.7 514.2 501.8C557 494 600 489 642.8 490.7C685.7 492.3 728.3 500.7 771.2 510C814 519.3 857 529.7 878.5 534.8L900 540L900 601L878.5 601C857 601 814 601 771.2 601C728.3 601 685.7 601 642.8 601C600 601 557 601 514.2 601C471.3 601 428.7 601 385.8 601C343 601 300 601 257.2 601C214.3 601 171.7 601 128.8 601C86 601 43 601 21.5 601L0 601Z" fill="#f5f5f5"></path><path d="M0 525L21.5 525C43 525 86 525 128.8 525.2C171.7 525.3 214.3 525.7 257.2 529.3C300 533 343 540 385.8 544.8C428.7 549.7 471.3 552.3 514.2 552.5C557 552.7 600 550.3 642.8 553C685.7 555.7 728.3 563.3 771.2 566.8C814 570.3 857 569.7 878.5 569.3L900 569L900 601L878.5 601C857 601 814 601 771.2 601C728.3 601 685.7 601 642.8 601C600 601 557 601 514.2 601C471.3 601 428.7 601 385.8 601C343 601 300 601 257.2 601C214.3 601 171.7 601 128.8 601C86 601 43 601 21.5 601L0 601Z" fill="#f5f5f5"></path></svg>