<svg id="visual" viewBox="0 0 900 600" width="900" height="600" xmlns="http://www.w3.org/2000/svg" xmlns:xlink="http://www.w3.org/1999/xlink" version="1.1"><g stroke-width="1" stroke-linejoin="bevel"><path d="M422 308L439 400L481 307Z" fill="#9999fd" stroke="#9999fd"></path><path d="M439 400L535 400L481 307Z" fill="#2962ff" stroke="#2962ff"></path><path d="M422 308L336 370L439 400Z" fill="#d9d6f8" stroke="#d9d6f8"></path><path d="M336 370L396 469L439 400Z" fill="#868bfe" stroke="#868bfe"></path><path d="M439 400L497 517L535 400Z" fill="#cbc6fa" stroke="#cbc6fa"></path><path d="M535 400L575 281L481 307Z" fill="#9999fd" stroke="#9999fd"></path><path d="M481 307L372 219L422 308Z" fill="#868bfe" stroke="#868bfe"></path><path d="M510 175L372 219L481 307Z" fill="#bbb7fb" stroke="#bbb7fb"></path><path d="M422 308L281 265L336 370Z" fill="#707dfe" stroke="#707dfe"></path><path d="M602 536L602 387L535 400Z" fill="#d9d6f8" stroke="#d9d6f8"></path><path d="M535 400L602 387L575 281Z" fill="#546fff" stroke="#546fff"></path><path d="M396 469L497 517L439 400Z" fill="#aba8fc" stroke="#aba8fc"></path><path d="M575 281L510 175L481 307Z" fill="#f5f5f5" stroke="#f5f5f5"></path><path d="M372 219L281 265L422 308Z" fill="#aba8fc" stroke="#aba8fc"></path><path d="M704 334L597 216L575 281Z" fill="#707dfe" stroke="#707dfe"></path><path d="M575 281L597 216L510 175Z" fill="#546fff" stroke="#546fff"></path><path d="M372 219L278 222L281 265Z" fill="#d9d6f8" stroke="#d9d6f8"></path><path d="M338 116L278 222L372 219Z" fill="#bbb7fb" stroke="#bbb7fb"></path><path d="M684 539L671 369L602 387Z" fill="#d9d6f8" stroke="#d9d6f8"></path><path d="M602 387L671 369L575 281Z" fill="#d9d6f8" stroke="#d9d6f8"></path><path d="M591 105L476 125L510 175Z" fill="#e7e5f7" stroke="#e7e5f7"></path><path d="M510 175L476 125L372 219Z" fill="#f5f5f5" stroke="#f5f5f5"></path><path d="M497 517L602 536L535 400Z" fill="#9999fd" stroke="#9999fd"></path><path d="M336 370L278 527L396 469Z" fill="#d9d6f8" stroke="#d9d6f8"></path><path d="M396 469L405 600L497 517Z" fill="#707dfe" stroke="#707dfe"></path><path d="M497 517L503 600L602 536Z" fill="#f5f5f5" stroke="#f5f5f5"></path><path d="M195 477L278 527L336 370Z" fill="#9999fd" stroke="#9999fd"></path><path d="M170 370L336 370L281 265Z" fill="#cbc6fa" stroke="#cbc6fa"></path><path d="M792 462L704 334L671 369Z" fill="#bbb7fb" stroke="#bbb7fb"></path><path d="M671 369L704 334L575 281Z" fill="#9999fd" stroke="#9999fd"></path><path d="M278 527L405 600L396 469Z" fill="#aba8fc" stroke="#aba8fc"></path><path d="M405 600L503 600L497 517Z" fill="#d9d6f8" stroke="#d9d6f8"></path><path d="M397 95L338 116L372 219Z" fill="#707dfe" stroke="#707dfe"></path><path d="M476 125L397 95L372 219Z" fill="#707dfe" stroke="#707dfe"></path><path d="M702 85L591 105L597 216Z" fill="#aba8fc" stroke="#aba8fc"></path><path d="M597 216L591 105L510 175Z" fill="#546fff" stroke="#546fff"></path><path d="M476 125L462 0L397 95Z" fill="#cbc6fa" stroke="#cbc6fa"></path><path d="M220 186L281 265L278 222Z" fill="#aba8fc" stroke="#aba8fc"></path><path d="M164 275L170 370L281 265Z" fill="#9999fd" stroke="#9999fd"></path><path d="M338 116L220 186L278 222Z" fill="#707dfe" stroke="#707dfe"></path><path d="M170 370L195 477L336 370Z" fill="#2962ff" stroke="#2962ff"></path><path d="M220 186L164 275L281 265Z" fill="#707dfe" stroke="#707dfe"></path><path d="M625 600L684 539L602 536Z" fill="#546fff" stroke="#546fff"></path><path d="M602 536L684 539L602 387Z" fill="#cbc6fa" stroke="#cbc6fa"></path><path d="M704 334L727 227L597 216Z" fill="#f5f5f5" stroke="#f5f5f5"></path><path d="M820 328L727 227L704 334Z" fill="#2962ff" stroke="#2962ff"></path><path d="M503 600L625 600L602 536Z" fill="#d9d6f8" stroke="#d9d6f8"></path><path d="M278 527L267 600L405 600Z" fill="#2962ff" stroke="#2962ff"></path><path d="M190 600L267 600L278 527Z" fill="#bbb7fb" stroke="#bbb7fb"></path><path d="M88 178L113 278L164 275Z" fill="#f5f5f5" stroke="#f5f5f5"></path><path d="M164 275L113 278L170 370Z" fill="#d9d6f8" stroke="#d9d6f8"></path><path d="M73 407L139 529L195 477Z" fill="#e7e5f7" stroke="#e7e5f7"></path><path d="M591 105L462 0L476 125Z" fill="#868bfe" stroke="#868bfe"></path><path d="M397 95L278 0L338 116Z" fill="#aba8fc" stroke="#aba8fc"></path><path d="M338 116L184 66L220 186Z" fill="#868bfe" stroke="#868bfe"></path><path d="M462 0L433 0L397 95Z" fill="#546fff" stroke="#546fff"></path><path d="M220 186L88 178L164 275Z" fill="#e7e5f7" stroke="#e7e5f7"></path><path d="M718 600L792 462L684 539Z" fill="#e7e5f7" stroke="#e7e5f7"></path><path d="M684 539L792 462L671 369Z" fill="#aba8fc" stroke="#aba8fc"></path><path d="M73 407L195 477L170 370Z" fill="#546fff" stroke="#546fff"></path><path d="M195 477L190 600L278 527Z" fill="#546fff" stroke="#546fff"></path><path d="M139 529L190 600L195 477Z" fill="#aba8fc" stroke="#aba8fc"></path><path d="M727 227L702 85L597 216Z" fill="#d9d6f8" stroke="#d9d6f8"></path><path d="M591 105L622 0L462 0Z" fill="#bbb7fb" stroke="#bbb7fb"></path><path d="M806 119L702 85L727 227Z" fill="#cbc6fa" stroke="#cbc6fa"></path><path d="M792 462L816 377L704 334Z" fill="#2962ff" stroke="#2962ff"></path><path d="M625 600L718 600L684 539Z" fill="#546fff" stroke="#546fff"></path><path d="M816 377L820 328L704 334Z" fill="#aba8fc" stroke="#aba8fc"></path><path d="M820 328L802 193L727 227Z" fill="#868bfe" stroke="#868bfe"></path><path d="M113 278L73 407L170 370Z" fill="#aba8fc" stroke="#aba8fc"></path><path d="M702 85L622 0L591 105Z" fill="#546fff" stroke="#546fff"></path><path d="M278 0L184 66L338 116Z" fill="#9999fd" stroke="#9999fd"></path><path d="M433 0L278 0L397 95Z" fill="#aba8fc" stroke="#aba8fc"></path><path d="M184 66L88 178L220 186Z" fill="#d9d6f8" stroke="#d9d6f8"></path><path d="M113 278L0 330L73 407Z" fill="#f5f5f5" stroke="#f5f5f5"></path><path d="M839 0L670 0L702 85Z" fill="#9999fd" stroke="#9999fd"></path><path d="M702 85L670 0L622 0Z" fill="#e7e5f7" stroke="#e7e5f7"></path><path d="M900 206L806 119L802 193Z" fill="#e7e5f7" stroke="#e7e5f7"></path><path d="M802 193L806 119L727 227Z" fill="#2962ff" stroke="#2962ff"></path><path d="M278 0L196 0L184 66Z" fill="#aba8fc" stroke="#aba8fc"></path><path d="M184 66L62 105L88 178Z" fill="#546fff" stroke="#546fff"></path><path d="M816 377L900 384L820 328Z" fill="#868bfe" stroke="#868bfe"></path><path d="M820 328L900 283L802 193Z" fill="#9999fd" stroke="#9999fd"></path><path d="M792 462L900 384L816 377Z" fill="#707dfe" stroke="#707dfe"></path><path d="M900 505L900 384L792 462Z" fill="#bbb7fb" stroke="#bbb7fb"></path><path d="M0 207L0 330L113 278Z" fill="#546fff" stroke="#546fff"></path><path d="M73 407L0 507L139 529Z" fill="#f5f5f5" stroke="#f5f5f5"></path><path d="M900 384L900 283L820 328Z" fill="#aba8fc" stroke="#aba8fc"></path><path d="M718 600L837 600L792 462Z" fill="#e7e5f7" stroke="#e7e5f7"></path><path d="M0 330L0 433L73 407Z" fill="#f5f5f5" stroke="#f5f5f5"></path><path d="M139 529L61 600L190 600Z" fill="#f5f5f5" stroke="#f5f5f5"></path><path d="M88 178L0 207L113 278Z" fill="#707dfe" stroke="#707dfe"></path><path d="M139 0L62 105L184 66Z" fill="#e7e5f7" stroke="#e7e5f7"></path><path d="M0 507L61 600L139 529Z" fill="#9999fd" stroke="#9999fd"></path><path d="M196 0L139 0L184 66Z" fill="#cbc6fa" stroke="#cbc6fa"></path><path d="M900 283L900 206L802 193Z" fill="#2962ff" stroke="#2962ff"></path><path d="M837 600L900 505L792 462Z" fill="#f5f5f5" stroke="#f5f5f5"></path><path d="M0 130L0 207L88 178Z" fill="#f5f5f5" stroke="#f5f5f5"></path><path d="M0 433L0 507L73 407Z" fill="#868bfe" stroke="#868bfe"></path><path d="M0 0L0 130L62 105Z" fill="#cbc6fa" stroke="#cbc6fa"></path><path d="M62 105L0 130L88 178Z" fill="#546fff" stroke="#546fff"></path><path d="M837 600L900 600L900 505Z" fill="#f5f5f5" stroke="#f5f5f5"></path><path d="M0 507L0 600L61 600Z" fill="#546fff" stroke="#546fff"></path><path d="M900 206L900 91L806 119Z" fill="#e7e5f7" stroke="#e7e5f7"></path><path d="M806 119L839 0L702 85Z" fill="#d9d6f8" stroke="#d9d6f8"></path><path d="M900 91L839 0L806 119Z" fill="#546fff" stroke="#546fff"></path><path d="M900 91L900 0L839 0Z" fill="#9999fd" stroke="#9999fd"></path><path d="M139 0L0 0L62 105Z" fill="#bbb7fb" stroke="#bbb7fb"></path></g></svg>