<svg id="visual" viewBox="0 0 900 600" width="900" height="600" xmlns="http://www.w3.org/2000/svg" xmlns:xlink="http://www.w3.org/1999/xlink" version="1.1"><rect x="0" y="0" width="900" height="600" fill="#f5f5f5"></rect><path d="M0 379L10 387C20 395 40 411 60 409C80 407 100 387 120 387.3C140 387.7 160 408.3 180 416.3C200 424.3 220 419.7 240 408.5C260 397.3 280 379.7 300 383.8C320 388 340 414 360 415C380 416 400 392 420 386.3C440 380.7 460 393.3 480 403.5C500 413.7 520 421.3 540 427.5C560 433.7 580 438.3 600 435.7C620 433 640 423 660 409.2C680 395.3 700 377.7 720 379.2C740 380.7 760 401.3 780 410.3C800 419.3 820 416.7 840 410.8C860 405 880 396 890 391.5L900 387L900 601L890 601C880 601 860 601 840 601C820 601 800 601 780 601C760 601 740 601 720 601C700 601 680 601 660 601C640 601 620 601 600 601C580 601 560 601 540 601C520 601 500 601 480 601C460 601 440 601 420 601C400 601 380 601 360 601C340 601 320 601 300 601C280 601 260 601 240 601C220 601 200 601 180 601C160 601 140 601 120 601C100 601 80 601 60 601C40 601 20 601 10 601L0 601Z" fill="#ff857e"></path><path d="M0 408L10 419C20 430 40 452 60 454.2C80 456.3 100 438.7 120 433.5C140 428.3 160 435.7 180 438C200 440.3 220 437.7 240 441.7C260 445.7 280 456.3 300 463C320 469.7 340 472.3 360 471.3C380 470.3 400 465.7 420 455.7C440 445.7 460 430.3 480 423.5C500 416.7 520 418.3 540 428.3C560 438.3 580 456.7 600 456.5C620 456.3 640 437.7 660 430C680 422.3 700 425.7 720 427.7C740 429.7 760 430.3 780 436.2C800 442 820 453 840 457.2C860 461.3 880 458.7 890 457.3L900 456L900 601L890 601C880 601 860 601 840 601C820 601 800 601 780 601C760 601 740 601 720 601C700 601 680 601 660 601C640 601 620 601 600 601C580 601 560 601 540 601C520 601 500 601 480 601C460 601 440 601 420 601C400 601 380 601 360 601C340 601 320 601 300 601C280 601 260 601 240 601C220 601 200 601 180 601C160 601 140 601 120 601C100 601 80 601 60 601C40 601 20 601 10 601L0 601Z" fill="#fe6692"></path><path d="M0 511L10 498.8C20 486.7 40 462.3 60 455C80 447.7 100 457.3 120 466.7C140 476 160 485 180 486.3C200 487.7 220 481.3 240 478.3C260 475.3 280 475.7 300 469.3C320 463 340 450 360 454.5C380 459 400 481 420 484.2C440 487.3 460 471.7 480 467.8C500 464 520 472 540 479C560 486 580 492 600 496.7C620 501.3 640 504.7 660 501.2C680 497.7 700 487.3 720 476.8C740 466.3 760 455.7 780 459C800 462.3 820 479.7 840 481.8C860 484 880 471 890 464.5L900 458L900 601L890 601C880 601 860 601 840 601C820 601 800 601 780 601C760 601 740 601 720 601C700 601 680 601 660 601C640 601 620 601 600 601C580 601 560 601 540 601C520 601 500 601 480 601C460 601 440 601 420 601C400 601 380 601 360 601C340 601 320 601 300 601C280 601 260 601 240 601C220 601 200 601 180 601C160 601 140 601 120 601C100 601 80 601 60 601C40 601 20 601 10 601L0 601Z" fill="#e950b4"></path><path d="M0 527L10 526.8C20 526.7 40 526.3 60 523.2C80 520 100 514 120 511.7C140 509.3 160 510.7 180 514.5C200 518.3 220 524.7 240 526.3C260 528 280 525 300 525.3C320 525.7 340 529.3 360 527C380 524.7 400 516.3 420 510.8C440 505.3 460 502.7 480 507.7C500 512.7 520 525.3 540 532C560 538.7 580 539.3 600 540C620 540.7 640 541.3 660 540.7C680 540 700 538 720 535.2C740 532.3 760 528.7 780 519.8C800 511 820 497 840 491.5C860 486 880 489 890 490.5L900 492L900 601L890 601C880 601 860 601 840 601C820 601 800 601 780 601C760 601 740 601 720 601C700 601 680 601 660 601C640 601 620 601 600 601C580 601 560 601 540 601C520 601 500 601 480 601C460 601 440 601 420 601C400 601 380 601 360 601C340 601 320 601 300 601C280 601 260 601 240 601C220 601 200 601 180 601C160 601 140 601 120 601C100 601 80 601 60 601C40 601 20 601 10 601L0 601Z" fill="#b651dc"></path><path d="M0 531L10 533.7C20 536.3 40 541.7 60 548.5C80 555.3 100 563.7 120 566.7C140 569.7 160 567.3 180 559.3C200 551.3 220 537.7 240 530.8C260 524 280 524 300 527.2C320 530.3 340 536.7 360 540.7C380 544.7 400 546.3 420 548.2C440 550 460 552 480 549.7C500 547.3 520 540.7 540 539.8C560 539 580 544 600 545.7C620 547.3 640 545.7 660 549.5C680 553.3 700 562.7 720 563.2C740 563.7 760 555.3 780 552.7C800 550 820 553 840 554.5C860 556 880 556 890 556L900 556L900 601L890 601C880 601 860 601 840 601C820 601 800 601 780 601C760 601 740 601 720 601C700 601 680 601 660 601C640 601 620 601 600 601C580 601 560 601 540 601C520 601 500 601 480 601C460 601 440 601 420 601C400 601 380 601 360 601C340 601 320 601 300 601C280 601 260 601 240 601C220 601 200 601 180 601C160 601 140 601 120 601C100 601 80 601 60 601C40 601 20 601 10 601L0 601Z" fill="#2962ff"></path></svg>