<svg id="visual" viewBox="0 0 900 600" width="900" height="600" xmlns="http://www.w3.org/2000/svg" xmlns:xlink="http://www.w3.org/1999/xlink" version="1.1"><rect x="0" y="0" width="900" height="600" fill="#f5f5f5"></rect><path d="M0 378L13.7 383C27.3 388 54.7 398 82 405.5C109.3 413 136.7 418 163.8 423C191 428 218 433 245.2 432.3C272.3 431.7 299.7 425.3 327 413.8C354.3 402.3 381.7 385.7 409 388.8C436.3 392 463.7 415 491 416.5C518.3 418 545.7 398 573 395.5C600.3 393 627.7 408 654.8 406.3C682 404.7 709 386.3 736.2 386.2C763.3 386 790.7 404 818 408.5C845.3 413 872.7 404 886.3 399.5L900 395L900 601L886.3 601C872.7 601 845.3 601 818 601C790.7 601 763.3 601 736.2 601C709 601 682 601 654.8 601C627.7 601 600.3 601 573 601C545.7 601 518.3 601 491 601C463.7 601 436.3 601 409 601C381.7 601 354.3 601 327 601C299.7 601 272.3 601 245.2 601C218 601 191 601 163.8 601C136.7 601 109.3 601 82 601C54.7 601 27.3 601 13.7 601L0 601Z" fill="#ffada4"></path><path d="M0 477L13.7 469.5C27.3 462 54.7 447 82 434.7C109.3 422.3 136.7 412.7 163.8 416.3C191 420 218 437 245.2 444.7C272.3 452.3 299.7 450.7 327 440.5C354.3 430.3 381.7 411.7 409 408.7C436.3 405.7 463.7 418.3 491 430.2C518.3 442 545.7 453 573 451.8C600.3 450.7 627.7 437.3 654.8 435.2C682 433 709 442 736.2 442.3C763.3 442.7 790.7 434.3 818 431.7C845.3 429 872.7 432 886.3 433.5L900 435L900 601L886.3 601C872.7 601 845.3 601 818 601C790.7 601 763.3 601 736.2 601C709 601 682 601 654.8 601C627.7 601 600.3 601 573 601C545.7 601 518.3 601 491 601C463.7 601 436.3 601 409 601C381.7 601 354.3 601 327 601C299.7 601 272.3 601 245.2 601C218 601 191 601 163.8 601C136.7 601 109.3 601 82 601C54.7 601 27.3 601 13.7 601L0 601Z" fill="#ff9991"></path><path d="M0 509L13.7 505.8C27.3 502.7 54.7 496.3 82 485.8C109.3 475.3 136.7 460.7 163.8 454.5C191 448.3 218 450.7 245.2 454.2C272.3 457.7 299.7 462.3 327 466.8C354.3 471.3 381.7 475.7 409 472.7C436.3 469.7 463.7 459.3 491 452.3C518.3 445.3 545.7 441.7 573 440.2C600.3 438.7 627.7 439.3 654.8 439.3C682 439.3 709 438.7 736.2 441.3C763.3 444 790.7 450 818 454.7C845.3 459.3 872.7 462.7 886.3 464.3L900 466L900 601L886.3 601C872.7 601 845.3 601 818 601C790.7 601 763.3 601 736.2 601C709 601 682 601 654.8 601C627.7 601 600.3 601 573 601C545.7 601 518.3 601 491 601C463.7 601 436.3 601 409 601C381.7 601 354.3 601 327 601C299.7 601 272.3 601 245.2 601C218 601 191 601 163.8 601C136.7 601 109.3 601 82 601C54.7 601 27.3 601 13.7 601L0 601Z" fill="#ff857e"></path><path d="M0 535L13.7 530.5C27.3 526 54.7 517 82 514.8C109.3 512.7 136.7 517.3 163.8 522.2C191 527 218 532 245.2 526.7C272.3 521.3 299.7 505.7 327 496.2C354.3 486.7 381.7 483.3 409 483.7C436.3 484 463.7 488 491 495.8C518.3 503.7 545.7 515.3 573 521C600.3 526.7 627.7 526.3 654.8 518.7C682 511 709 496 736.2 492.3C763.3 488.7 790.7 496.3 818 499.5C845.3 502.7 872.7 501.3 886.3 500.7L900 500L900 601L886.3 601C872.7 601 845.3 601 818 601C790.7 601 763.3 601 736.2 601C709 601 682 601 654.8 601C627.7 601 600.3 601 573 601C545.7 601 518.3 601 491 601C463.7 601 436.3 601 409 601C381.7 601 354.3 601 327 601C299.7 601 272.3 601 245.2 601C218 601 191 601 163.8 601C136.7 601 109.3 601 82 601C54.7 601 27.3 601 13.7 601L0 601Z" fill="#f6746b"></path><path d="M0 558L13.7 556.5C27.3 555 54.7 552 82 549.5C109.3 547 136.7 545 163.8 548.7C191 552.3 218 561.7 245.2 564.5C272.3 567.3 299.7 563.7 327 559.2C354.3 554.7 381.7 549.3 409 543.8C436.3 538.3 463.7 532.7 491 536C518.3 539.3 545.7 551.7 573 551.3C600.3 551 627.7 538 654.8 538.5C682 539 709 553 736.2 558.3C763.3 563.7 790.7 560.3 818 561.3C845.3 562.3 872.7 567.7 886.3 570.3L900 573L900 601L886.3 601C872.7 601 845.3 601 818 601C790.7 601 763.3 601 736.2 601C709 601 682 601 654.8 601C627.7 601 600.3 601 573 601C545.7 601 518.3 601 491 601C463.7 601 436.3 601 409 601C381.7 601 354.3 601 327 601C299.7 601 272.3 601 245.2 601C218 601 191 601 163.8 601C136.7 601 109.3 601 82 601C54.7 601 27.3 601 13.7 601L0 601Z" fill="#ed6357"></path></svg>