<svg id="visual" viewBox="0 0 900 600" width="900" height="600" xmlns="http://www.w3.org/2000/svg" xmlns:xlink="http://www.w3.org/1999/xlink" version="1.1"><rect x="0" y="0" width="900" height="600" fill="#f5f5f5"></rect><path d="M0 431L10 433.3C20 435.7 40 440.3 60 434.7C80 429 100 413 120 409.3C140 405.7 160 414.3 180 416.8C200 419.3 220 415.7 240 414.5C260 413.3 280 414.7 300 411C320 407.3 340 398.7 360 399.3C380 400 400 410 420 411.8C440 413.7 460 407.3 480 401.2C500 395 520 389 540 386.7C560 384.3 580 385.7 600 384.8C620 384 640 381 660 381.7C680 382.3 700 386.7 720 390.3C740 394 760 397 780 393.5C800 390 820 380 840 387.8C860 395.7 880 421.3 890 434.2L900 447L900 601L890 601C880 601 860 601 840 601C820 601 800 601 780 601C760 601 740 601 720 601C700 601 680 601 660 601C640 601 620 601 600 601C580 601 560 601 540 601C520 601 500 601 480 601C460 601 440 601 420 601C400 601 380 601 360 601C340 601 320 601 300 601C280 601 260 601 240 601C220 601 200 601 180 601C160 601 140 601 120 601C100 601 80 601 60 601C40 601 20 601 10 601L0 601Z" fill="#ffcc80"></path><path d="M0 465L10 466C20 467 40 469 60 464.5C80 460 100 449 120 444.3C140 439.7 160 441.3 180 438.7C200 436 220 429 240 425C260 421 280 420 300 417.7C320 415.3 340 411.7 360 418.7C380 425.7 400 443.3 420 443.8C440 444.3 460 427.7 480 424.7C500 421.7 520 432.3 540 440.7C560 449 580 455 600 446.8C620 438.7 640 416.3 660 407C680 397.7 700 401.3 720 405.5C740 409.7 760 414.3 780 420.5C800 426.7 820 434.3 840 433C860 431.7 880 421.3 890 416.2L900 411L900 601L890 601C880 601 860 601 840 601C820 601 800 601 780 601C760 601 740 601 720 601C700 601 680 601 660 601C640 601 620 601 600 601C580 601 560 601 540 601C520 601 500 601 480 601C460 601 440 601 420 601C400 601 380 601 360 601C340 601 320 601 300 601C280 601 260 601 240 601C220 601 200 601 180 601C160 601 140 601 120 601C100 601 80 601 60 601C40 601 20 601 10 601L0 601Z" fill="#ffba7a"></path><path d="M0 492L10 484C20 476 40 460 60 463C80 466 100 488 120 492.3C140 496.7 160 483.3 180 481.7C200 480 220 490 240 492.3C260 494.7 280 489.3 300 485.8C320 482.3 340 480.7 360 477.2C380 473.7 400 468.3 420 473C440 477.7 460 492.3 480 491C500 489.7 520 472.3 540 464.7C560 457 580 459 600 459C620 459 640 457 660 462.7C680 468.3 700 481.7 720 489.5C740 497.3 760 499.7 780 500C800 500.3 820 498.7 840 490C860 481.3 880 465.7 890 457.8L900 450L900 601L890 601C880 601 860 601 840 601C820 601 800 601 780 601C760 601 740 601 720 601C700 601 680 601 660 601C640 601 620 601 600 601C580 601 560 601 540 601C520 601 500 601 480 601C460 601 440 601 420 601C400 601 380 601 360 601C340 601 320 601 300 601C280 601 260 601 240 601C220 601 200 601 180 601C160 601 140 601 120 601C100 601 80 601 60 601C40 601 20 601 10 601L0 601Z" fill="#ffa877"></path><path d="M0 485L10 494.7C20 504.3 40 523.7 60 533C80 542.3 100 541.7 120 537.3C140 533 160 525 180 516C200 507 220 497 240 495.2C260 493.3 280 499.7 300 502.2C320 504.7 340 503.3 360 504.5C380 505.7 400 509.3 420 514C440 518.7 460 524.3 480 519.3C500 514.3 520 498.7 540 499C560 499.3 580 515.7 600 521.2C620 526.7 640 521.3 660 522.8C680 524.3 700 532.7 720 529.2C740 525.7 760 510.3 780 509.7C800 509 820 523 840 524C860 525 880 513 890 507L900 501L900 601L890 601C880 601 860 601 840 601C820 601 800 601 780 601C760 601 740 601 720 601C700 601 680 601 660 601C640 601 620 601 600 601C580 601 560 601 540 601C520 601 500 601 480 601C460 601 440 601 420 601C400 601 380 601 360 601C340 601 320 601 300 601C280 601 260 601 240 601C220 601 200 601 180 601C160 601 140 601 120 601C100 601 80 601 60 601C40 601 20 601 10 601L0 601Z" fill="#ff9678"></path><path d="M0 565L10 563.8C20 562.7 40 560.3 60 560.3C80 560.3 100 562.7 120 562.8C140 563 160 561 180 561.8C200 562.7 220 566.3 240 566.3C260 566.3 280 562.7 300 559.2C320 555.7 340 552.3 360 552C380 551.7 400 554.3 420 554.5C440 554.7 460 552.3 480 550.3C500 548.3 520 546.7 540 548C560 549.3 580 553.7 600 552.2C620 550.7 640 543.3 660 538.2C680 533 700 530 720 529.8C740 529.7 760 532.3 780 533.2C800 534 820 533 840 537.5C860 542 880 552 890 557L900 562L900 601L890 601C880 601 860 601 840 601C820 601 800 601 780 601C760 601 740 601 720 601C700 601 680 601 660 601C640 601 620 601 600 601C580 601 560 601 540 601C520 601 500 601 480 601C460 601 440 601 420 601C400 601 380 601 360 601C340 601 320 601 300 601C280 601 260 601 240 601C220 601 200 601 180 601C160 601 140 601 120 601C100 601 80 601 60 601C40 601 20 601 10 601L0 601Z" fill="#ff857e"></path></svg>