<svg id="visual" viewBox="0 0 900 600" width="900" height="600" xmlns="http://www.w3.org/2000/svg" xmlns:xlink="http://www.w3.org/1999/xlink" version="1.1"><rect x="0" y="0" width="900" height="600" fill="#F5f5f5"></rect><path d="M0 350L15 347.7C30 345.3 60 340.7 90 336.3C120 332 150 328 180 334.3C210 340.7 240 357.3 270 363.2C300 369 330 364 360 356.7C390 349.3 420 339.7 450 334.3C480 329 510 328 540 330.2C570 332.3 600 337.7 630 341.3C660 345 690 347 720 357.5C750 368 780 387 810 384C840 381 870 356 885 343.5L900 331L900 601L885 601C870 601 840 601 810 601C780 601 750 601 720 601C690 601 660 601 630 601C600 601 570 601 540 601C510 601 480 601 450 601C420 601 390 601 360 601C330 601 300 601 270 601C240 601 210 601 180 601C150 601 120 601 90 601C60 601 30 601 15 601L0 601Z" fill="#f5f5f5"></path><path d="M0 377L15 375.5C30 374 60 371 90 381.3C120 391.7 150 415.3 180 419.3C210 423.3 240 407.7 270 399.7C300 391.7 330 391.3 360 386.8C390 382.3 420 373.7 450 380.3C480 387 510 409 540 419.8C570 430.7 600 430.3 630 432.3C660 434.3 690 438.7 720 430C750 421.3 780 399.7 810 392.5C840 385.3 870 392.7 885 396.3L900 400L900 601L885 601C870 601 840 601 810 601C780 601 750 601 720 601C690 601 660 601 630 601C600 601 570 601 540 601C510 601 480 601 450 601C420 601 390 601 360 601C330 601 300 601 270 601C240 601 210 601 180 601C150 601 120 601 90 601C60 601 30 601 15 601L0 601Z" fill="#d2cef9"></path><path d="M0 458L15 461.2C30 464.3 60 470.7 90 469C120 467.3 150 457.7 180 449.7C210 441.7 240 435.3 270 439.3C300 443.3 330 457.7 360 455.8C390 454 420 436 450 431.7C480 427.3 510 436.7 540 441.8C570 447 600 448 630 452.5C660 457 690 465 720 469C750 473 780 473 810 466.5C840 460 870 447 885 440.5L900 434L900 601L885 601C870 601 840 601 810 601C780 601 750 601 720 601C690 601 660 601 630 601C600 601 570 601 540 601C510 601 480 601 450 601C420 601 390 601 360 601C330 601 300 601 270 601C240 601 210 601 180 601C150 601 120 601 90 601C60 601 30 601 15 601L0 601Z" fill="#aba8fc"></path><path d="M0 486L15 483C30 480 60 474 90 470.8C120 467.7 150 467.3 180 470.3C210 473.3 240 479.7 270 480C300 480.3 330 474.7 360 476.8C390 479 420 489 450 496.5C480 504 510 509 540 506.3C570 503.7 600 493.3 630 491C660 488.7 690 494.3 720 493.3C750 492.3 780 484.7 810 481.5C840 478.3 870 479.7 885 480.3L900 481L900 601L885 601C870 601 840 601 810 601C780 601 750 601 720 601C690 601 660 601 630 601C600 601 570 601 540 601C510 601 480 601 450 601C420 601 390 601 360 601C330 601 300 601 270 601C240 601 210 601 180 601C150 601 120 601 90 601C60 601 30 601 15 601L0 601Z" fill="#7c84fe"></path><path d="M0 516L15 522.2C30 528.3 60 540.7 90 541.2C120 541.7 150 530.3 180 529.5C210 528.7 240 538.3 270 539.7C300 541 330 534 360 532.7C390 531.3 420 535.7 450 537.2C480 538.7 510 537.3 540 537.5C570 537.7 600 539.3 630 540.2C660 541 690 541 720 536.8C750 532.7 780 524.3 810 525.5C840 526.7 870 537.3 885 542.7L900 548L900 601L885 601C870 601 840 601 810 601C780 601 750 601 720 601C690 601 660 601 630 601C600 601 570 601 540 601C510 601 480 601 450 601C420 601 390 601 360 601C330 601 300 601 270 601C240 601 210 601 180 601C150 601 120 601 90 601C60 601 30 601 15 601L0 601Z" fill="#2962ff"></path></svg>